<?xml version="1.0" standalone="no"?>
<!DOCTYPE svg PUBLIC "-//W3C//DTD SVG 20010904//EN"
 "http://www.w3.org/TR/2001/REC-SVG-20010904/DTD/svg10.dtd">
<svg version="1.0" xmlns="http://www.w3.org/2000/svg"
 width="500.000000pt" height="500.000000pt" viewBox="0 0 500.000000 500.000000"
 preserveAspectRatio="xMidYMid meet">
<metadata>
Created by potrace 1.11, written by Peter Selinger 2001-2013
</metadata>
<g transform="translate(0.000000,500.000000) scale(0.100000,-0.100000)"
fill="#000000" stroke="none">
<path d="M0 2500 l0 -2500 2500 0 2500 0 0 2500 0 2500 -2500 0 -2500 0 0
-2500z m905 862 c40 -25 52 -50 78 -167 21 -94 24 -100 47 -100 19 0 30 10 48
43 l24 43 -21 68 c-24 79 -27 125 -9 119 50 -17 76 -183 40 -254 -11 -21 -28
-47 -39 -56 -48 -44 -142 -61 -193 -35 -33 17 -66 77 -86 162 -20 85 -34 103
-67 88 -73 -33 -64 -179 16 -265 48 -51 143 -72 223 -49 43 12 63 -1 33 -23
-27 -19 -133 -22 -192 -5 -42 11 -111 68 -132 108 -25 50 -39 148 -26 192 34
112 171 182 256 131z m683 -2 c24 -11 84 -54 134 -95 49 -42 98 -81 109 -88
10 -6 19 -15 19 -19 0 -4 -48 -44 -107 -90 -59 -45 -135 -108 -169 -140 -34
-32 -66 -58 -72 -58 -26 0 -21 24 12 60 106 118 107 256 1 348 -69 61 -65 90
-63 -495 l3 -528 27 -3 c31 -4 38 13 63 152 18 98 53 185 112 273 41 62 107
133 123 133 22 0 8 -29 -46 -96 -81 -102 -130 -208 -154 -334 -28 -145 -29
-140 25 -140 54 0 104 19 135 51 40 43 70 119 70 182 0 43 4 57 15 57 33 0 31
-129 -4 -252 -41 -141 -89 -199 -204 -242 -90 -34 -117 -56 -117 -95 0 -25 8
-32 56 -56 68 -33 94 -71 94 -138 0 -143 -144 -221 -425 -233 -155 -7 -240 8
-348 60 -87 41 -156 106 -193 178 -23 45 -28 66 -28 134 0 72 4 89 32 147 91
184 344 282 603 233 47 -9 95 -16 107 -16 l22 0 0 529 c0 292 -4 532 -9 535
-13 8 -39 -26 -56 -74 -14 -38 -16 -98 -13 -400 2 -256 -1 -363 -9 -382 -35
-79 -164 -168 -246 -168 -46 0 -60 24 -27 47 45 31 67 146 37 187 -22 29 -104
33 -162 7 -39 -17 -45 -23 -36 -35 7 -8 22 -16 34 -18 34 -5 26 -23 -11 -26
-25 -3 -39 3 -62 27 -38 38 -39 78 -4 121 44 52 98 74 182 72 43 -1 72 3 72 9
0 17 -82 49 -127 49 -126 0 -256 -112 -239 -206 15 -77 139 -126 235 -93 44
16 63 -2 28 -26 -34 -22 -122 -30 -175 -16 -56 16 -126 83 -141 136 -34 125 3
230 107 301 70 49 115 64 188 64 28 0 65 5 82 11 28 10 31 15 37 67 9 86 31
153 74 219 98 151 284 230 409 173z m2042 -25 c31 -30 36 -44 66 -173 18 -80
33 -95 65 -66 45 41 50 65 29 143 -23 82 -26 125 -8 119 27 -9 51 -71 56 -142
4 -60 1 -79 -17 -114 -54 -106 -221 -138 -278 -53 -9 14 -29 66 -43 115 -32
110 -49 125 -91 78 -24 -26 -29 -41 -29 -80 2 -165 134 -265 294 -221 48 13
68 -1 35 -25 -28 -19 -142 -22 -200 -4 -95 28 -160 128 -163 248 -1 57 3 72
27 109 15 23 49 56 75 72 41 26 54 30 100 26 41 -3 59 -10 82 -32z m675 16
c22 -10 78 -50 125 -90 47 -40 97 -80 113 -89 15 -9 27 -20 27 -23 0 -12 -27
-35 -113 -102 -45 -34 -114 -92 -153 -129 -69 -66 -104 -84 -104 -54 0 8 19
36 41 63 23 26 48 63 56 82 19 44 18 129 0 174 -19 43 -93 117 -118 117 -18 0
-19 -18 -19 -529 0 -563 0 -558 47 -549 21 4 36 46 58 163 25 140 126 326 211
389 52 39 42 0 -21 -79 -90 -113 -128 -195 -159 -345 -28 -135 -27 -140 29
-140 117 0 205 101 205 238 0 34 4 62 8 62 37 0 42 -101 12 -228 -39 -161 -91
-230 -211 -275 -93 -36 -117 -53 -125 -94 -6 -30 -4 -32 44 -53 27 -12 63 -35
78 -51 26 -27 29 -37 29 -98 0 -58 -4 -73 -27 -102 -33 -44 -124 -94 -209
-114 -100 -25 -309 -30 -399 -11 -260 55 -407 226 -370 429 40 224 308 370
603 328 50 -7 111 -15 135 -18 l42 -5 -2 543 c-3 476 -5 544 -18 544 -8 0 -26
-22 -40 -50 l-25 -50 4 -357 c4 -392 2 -403 -56 -475 -58 -73 -205 -132 -248
-100 -19 14 -18 16 12 41 39 33 57 84 50 143 -6 57 -15 65 -75 71 -86 8 -192
-56 -109 -66 40 -5 35 -32 -7 -32 -37 0 -82 37 -92 76 -9 35 25 84 79 118 43
26 55 29 127 28 44 0 80 3 80 8 0 23 -67 44 -135 45 -60 0 -78 -4 -124 -31
-69 -39 -113 -98 -115 -154 -1 -37 4 -46 40 -80 50 -46 111 -60 187 -40 61 15
83 1 41 -27 -21 -13 -47 -18 -104 -18 -67 0 -82 4 -126 30 -123 75 -142 264
-38 375 65 69 136 102 246 111 54 4 95 13 103 21 6 7 17 49 24 93 14 102 50
174 120 249 114 119 259 166 366 117z m-1670 -363 c32 -25 64 -91 65 -132 0
-60 -24 -110 -83 -171 l-58 -60 37 -80 c47 -99 103 -203 114 -210 17 -10 40
40 40 86 0 53 -25 93 -65 103 -33 8 -32 16 11 67 19 23 44 60 55 81 24 47 46
49 64 6 7 -18 29 -53 49 -78 20 -25 36 -50 36 -57 0 -6 -17 -25 -37 -41 -43
-34 -92 -144 -101 -223 -5 -57 17 -104 54 -113 34 -9 46 2 68 63 10 28 22 51
27 51 20 0 19 -29 0 -66 -12 -21 -21 -45 -21 -53 0 -22 -100 -191 -114 -191
-13 0 -56 43 -105 108 l-33 42 -41 -47 c-23 -27 -63 -70 -89 -96 l-47 -49 -31
22 c-37 27 -111 129 -145 201 -51 111 -28 225 72 352 51 65 51 62 6 183 l-31
82 90 73 c50 41 108 95 130 122 22 26 43 47 48 47 4 0 20 -10 35 -22z"/>
<path d="M853 2030 c-90 -18 -136 -63 -149 -145 -15 -103 55 -200 190 -264 44
-22 106 -45 136 -52 83 -21 259 -16 352 9 218 59 294 152 198 243 -23 22 -54
41 -75 45 -33 6 -39 2 -116 -70 -101 -94 -163 -126 -238 -126 -64 0 -134 28
-150 58 -21 40 -13 88 20 121 47 48 139 71 301 78 l136 6 4 28 c3 17 0 29 -6
29 -6 0 -126 11 -266 25 -276 27 -275 27 -337 15z"/>
<path d="M1260 1870 c-136 -33 -225 -120 -154 -152 49 -23 172 29 260 110 35
32 37 36 19 43 -26 10 -80 9 -125 -1z"/>
<path d="M3546 1999 c-93 -22 -138 -76 -138 -167 -1 -72 18 -116 73 -170 49
-48 173 -112 259 -133 83 -21 268 -16 363 10 143 38 237 104 237 166 0 51 -82
125 -139 125 -11 0 -53 -29 -93 -65 -136 -122 -246 -154 -348 -102 -57 28 -76
64 -60 112 25 76 130 114 338 122 l142 6 0 28 c0 32 15 29 -310 59 -235 22
-266 22 -324 9z"/>
<path d="M3953 1825 c-72 -20 -127 -49 -153 -82 l-21 -28 23 -18 c44 -36 150
-2 267 86 48 35 52 41 35 48 -30 12 -94 9 -151 -6z"/>
<path d="M2504 2859 l-21 -21 30 -79 c16 -43 33 -79 37 -79 13 0 30 51 30 93
0 40 -30 107 -48 107 -4 0 -17 -9 -28 -21z"/>
<path d="M2422 2443 c-12 -58 -1 -135 26 -190 25 -48 99 -143 112 -143 5 0 17
12 27 26 16 25 16 28 -2 58 -43 71 -95 175 -115 228 -12 32 -25 60 -30 63 -4
3 -13 -16 -18 -42z"/>
</g>
</svg>
